<mxfile host="www.draw.io" modified="2019-11-17T10:33:12.285Z" agent="Mozilla/5.0 (Windows NT 10.0; Win64; x64) AppleWebKit/537.36 (KHTML, like Gecko) Chrome/78.0.3904.97 Safari/537.36" etag="6jeEFffk9FGoljFZwWZ4" version="12.2.6" type="github" pages="1">
  <diagram id="ppIIxIEaHlcZGKq-k6Io" name="Page-1">
    <mxGraphModel dx="1205" dy="628" grid="1" gridSize="10" guides="1" tooltips="1" connect="1" arrows="1" fold="1" page="1" pageScale="1" pageWidth="827" pageHeight="1169" math="0" shadow="0">
      <root>
        <mxCell id="0"/>
        <mxCell id="1" parent="0"/>
        <mxCell id="t7qmLVAt3Mfx72oACU28-5" value="Admin" style="swimlane;fontStyle=1;align=center;verticalAlign=top;childLayout=stackLayout;horizontal=1;startSize=26;horizontalStack=0;resizeParent=1;resizeParentMax=0;resizeLast=0;collapsible=1;marginBottom=0;" vertex="1" parent="1">
          <mxGeometry x="530" y="40" width="131" height="128" as="geometry"/>
        </mxCell>
        <mxCell id="t7qmLVAt3Mfx72oACU28-8" value="+verifyUser()&#xa;+createCandidate()&#xa;+publishResult()" style="text;strokeColor=none;fillColor=none;align=left;verticalAlign=top;spacingLeft=4;spacingRight=4;overflow=hidden;rotatable=0;points=[[0,0.5],[1,0.5]];portConstraint=eastwest;" vertex="1" parent="t7qmLVAt3Mfx72oACU28-5">
          <mxGeometry y="26" width="131" height="102" as="geometry"/>
        </mxCell>
        <mxCell id="t7qmLVAt3Mfx72oACU28-9" value="Result" style="swimlane;fontStyle=1;align=center;verticalAlign=top;childLayout=stackLayout;horizontal=1;startSize=26;horizontalStack=0;resizeParent=1;resizeParentMax=0;resizeLast=0;collapsible=1;marginBottom=0;" vertex="1" parent="1">
          <mxGeometry x="468" y="306" width="110" height="110" as="geometry">
            <mxRectangle x="450" y="339" width="70" height="26" as="alternateBounds"/>
          </mxGeometry>
        </mxCell>
        <mxCell id="t7qmLVAt3Mfx72oACU28-12" value="+countVote()&#xa;+displayResult()" style="text;strokeColor=none;fillColor=none;align=left;verticalAlign=top;spacingLeft=4;spacingRight=4;overflow=hidden;rotatable=0;points=[[0,0.5],[1,0.5]];portConstraint=eastwest;" vertex="1" parent="t7qmLVAt3Mfx72oACU28-9">
          <mxGeometry y="26" width="110" height="84" as="geometry"/>
        </mxCell>
        <mxCell id="t7qmLVAt3Mfx72oACU28-13" value="Voting Process" style="swimlane;fontStyle=1;align=center;verticalAlign=top;childLayout=stackLayout;horizontal=1;startSize=26;horizontalStack=0;resizeParent=1;resizeParentMax=0;resizeLast=0;collapsible=1;marginBottom=0;" vertex="1" parent="1">
          <mxGeometry x="173" y="312" width="137" height="140" as="geometry"/>
        </mxCell>
        <mxCell id="t7qmLVAt3Mfx72oACU28-16" value="+changeStatus()&#xa;+verify()&#xa;+vote()" style="text;strokeColor=none;fillColor=none;align=left;verticalAlign=top;spacingLeft=4;spacingRight=4;overflow=hidden;rotatable=0;points=[[0,0.5],[1,0.5]];portConstraint=eastwest;" vertex="1" parent="t7qmLVAt3Mfx72oACU28-13">
          <mxGeometry y="26" width="137" height="114" as="geometry"/>
        </mxCell>
        <mxCell id="t7qmLVAt3Mfx72oACU28-17" value="" style="endArrow=diamondThin;endFill=1;endSize=24;html=1;exitX=0;exitY=0.25;exitDx=0;exitDy=0;entryX=1.012;entryY=0.226;entryDx=0;entryDy=0;entryPerimeter=0;" edge="1" parent="1" source="t7qmLVAt3Mfx72oACU28-9" target="t7qmLVAt3Mfx72oACU28-16">
          <mxGeometry width="160" relative="1" as="geometry">
            <mxPoint x="170" y="330" as="sourcePoint"/>
            <mxPoint x="333" y="361.5953307392996" as="targetPoint"/>
          </mxGeometry>
        </mxCell>
        <mxCell id="t7qmLVAt3Mfx72oACU28-18" value="UserProfile" style="swimlane;fontStyle=1;align=center;verticalAlign=top;childLayout=stackLayout;horizontal=1;startSize=26;horizontalStack=0;resizeParent=1;resizeParentMax=0;resizeLast=0;collapsible=1;marginBottom=0;" vertex="1" parent="1">
          <mxGeometry x="253" y="22" width="117" height="140" as="geometry"/>
        </mxCell>
        <mxCell id="t7qmLVAt3Mfx72oACU28-21" value="+changeStatus()&#xa;&#xa;" style="text;strokeColor=none;fillColor=none;align=left;verticalAlign=top;spacingLeft=4;spacingRight=4;overflow=hidden;rotatable=0;points=[[0,0.5],[1,0.5]];portConstraint=eastwest;" vertex="1" parent="t7qmLVAt3Mfx72oACU28-18">
          <mxGeometry y="26" width="117" height="114" as="geometry"/>
        </mxCell>
        <mxCell id="t7qmLVAt3Mfx72oACU28-22" value="" style="endArrow=open;endFill=1;endSize=12;html=1;exitX=-0.014;exitY=0.069;exitDx=0;exitDy=0;exitPerimeter=0;entryX=1.007;entryY=-0.009;entryDx=0;entryDy=0;entryPerimeter=0;" edge="1" parent="1" source="t7qmLVAt3Mfx72oACU28-5" target="t7qmLVAt3Mfx72oACU28-21">
          <mxGeometry width="160" relative="1" as="geometry">
            <mxPoint x="200" y="180" as="sourcePoint"/>
            <mxPoint x="414.44000000000005" y="43.55600000000004" as="targetPoint"/>
          </mxGeometry>
        </mxCell>
        <mxCell id="t7qmLVAt3Mfx72oACU28-23" value="Verify" style="text;html=1;resizable=0;points=[];autosize=1;align=left;verticalAlign=top;spacingTop=-4;" vertex="1" parent="1">
          <mxGeometry x="473" y="48" width="50" height="20" as="geometry"/>
        </mxCell>
        <mxCell id="t7qmLVAt3Mfx72oACU28-24" value="has" style="text;html=1;resizable=0;points=[];autosize=1;align=left;verticalAlign=top;spacingTop=-4;" vertex="1" parent="1">
          <mxGeometry x="190" y="16" width="40" height="20" as="geometry"/>
        </mxCell>
        <mxCell id="t7qmLVAt3Mfx72oACU28-25" value="" style="endArrow=open;endFill=1;endSize=12;html=1;exitX=0.375;exitY=1.026;exitDx=0;exitDy=0;exitPerimeter=0;" edge="1" parent="1" source="t7qmLVAt3Mfx72oACU28-8" target="t7qmLVAt3Mfx72oACU28-9">
          <mxGeometry width="160" relative="1" as="geometry">
            <mxPoint x="620" y="250" as="sourcePoint"/>
            <mxPoint x="780" y="250" as="targetPoint"/>
          </mxGeometry>
        </mxCell>
        <mxCell id="t7qmLVAt3Mfx72oACU28-26" value="publish result" style="text;html=1;resizable=0;points=[];autosize=1;align=left;verticalAlign=top;spacingTop=-4;" vertex="1" parent="1">
          <mxGeometry x="575.5" y="239" width="90" height="20" as="geometry"/>
        </mxCell>
        <mxCell id="t7qmLVAt3Mfx72oACU28-27" value="1" style="text;html=1;resizable=0;points=[];autosize=1;align=left;verticalAlign=top;spacingTop=-4;" vertex="1" parent="1">
          <mxGeometry x="585.5" y="174" width="20" height="20" as="geometry"/>
        </mxCell>
        <mxCell id="t7qmLVAt3Mfx72oACU28-28" value="1...*" style="text;html=1;resizable=0;points=[];autosize=1;align=left;verticalAlign=top;spacingTop=-4;" vertex="1" parent="1">
          <mxGeometry x="555.5" y="279" width="40" height="20" as="geometry"/>
        </mxCell>
        <mxCell id="t7qmLVAt3Mfx72oACU28-29" value="" style="endArrow=open;endFill=1;endSize=12;html=1;entryX=0.5;entryY=0;entryDx=0;entryDy=0;exitX=0.905;exitY=1.025;exitDx=0;exitDy=0;exitPerimeter=0;" edge="1" parent="1" source="t7qmLVAt3Mfx72oACU28-50" target="t7qmLVAt3Mfx72oACU28-13">
          <mxGeometry width="160" relative="1" as="geometry">
            <mxPoint x="94.72000000000003" y="104.74199999999996" as="sourcePoint"/>
            <mxPoint x="210" y="260" as="targetPoint"/>
          </mxGeometry>
        </mxCell>
        <mxCell id="t7qmLVAt3Mfx72oACU28-30" value="cast vote" style="text;html=1;resizable=0;points=[];autosize=1;align=left;verticalAlign=top;spacingTop=-4;" vertex="1" parent="1">
          <mxGeometry x="140" y="259" width="60" height="20" as="geometry"/>
        </mxCell>
        <mxCell id="t7qmLVAt3Mfx72oACU28-31" value="1" style="text;html=1;resizable=0;points=[];autosize=1;align=left;verticalAlign=top;spacingTop=-4;" vertex="1" parent="1">
          <mxGeometry x="70" y="210" width="20" height="20" as="geometry"/>
        </mxCell>
        <mxCell id="t7qmLVAt3Mfx72oACU28-32" value="1" style="text;html=1;resizable=0;points=[];autosize=1;align=left;verticalAlign=top;spacingTop=-4;" vertex="1" parent="1">
          <mxGeometry x="180" y="289" width="20" height="20" as="geometry"/>
        </mxCell>
        <mxCell id="t7qmLVAt3Mfx72oACU28-33" value="" style="endArrow=open;endFill=1;endSize=12;html=1;entryX=0.467;entryY=1.009;entryDx=0;entryDy=0;entryPerimeter=0;" edge="1" parent="1" source="t7qmLVAt3Mfx72oACU28-13" target="t7qmLVAt3Mfx72oACU28-21">
          <mxGeometry width="160" relative="1" as="geometry">
            <mxPoint x="233" y="258.5" as="sourcePoint"/>
            <mxPoint x="393" y="258.5" as="targetPoint"/>
          </mxGeometry>
        </mxCell>
        <mxCell id="t7qmLVAt3Mfx72oACU28-34" value="1" style="text;html=1;resizable=0;points=[];autosize=1;align=left;verticalAlign=top;spacingTop=-4;" vertex="1" parent="1">
          <mxGeometry x="280" y="288.5" width="20" height="20" as="geometry"/>
        </mxCell>
        <mxCell id="t7qmLVAt3Mfx72oACU28-35" value="change status" style="text;html=1;resizable=0;points=[];autosize=1;align=left;verticalAlign=top;spacingTop=-4;" vertex="1" parent="1">
          <mxGeometry x="257" y="239" width="90" height="20" as="geometry"/>
        </mxCell>
        <mxCell id="t7qmLVAt3Mfx72oACU28-36" value="1...*" style="text;html=1;resizable=0;points=[];autosize=1;align=left;verticalAlign=top;spacingTop=-4;" vertex="1" parent="1">
          <mxGeometry x="302" y="200" width="40" height="20" as="geometry"/>
        </mxCell>
        <mxCell id="t7qmLVAt3Mfx72oACU28-37" value="" style="endArrow=open;endFill=1;endSize=12;html=1;exitX=-0.001;exitY=0.005;exitDx=0;exitDy=0;exitPerimeter=0;entryX=1;entryY=-0.014;entryDx=0;entryDy=0;entryPerimeter=0;" edge="1" parent="1" source="t7qmLVAt3Mfx72oACU28-8" target="t7qmLVAt3Mfx72oACU28-13">
          <mxGeometry width="160" relative="1" as="geometry">
            <mxPoint x="385" y="242.5" as="sourcePoint"/>
            <mxPoint x="330" y="310" as="targetPoint"/>
          </mxGeometry>
        </mxCell>
        <mxCell id="t7qmLVAt3Mfx72oACU28-38" value="manages" style="text;html=1;resizable=0;points=[];autosize=1;align=left;verticalAlign=top;spacingTop=-4;" vertex="1" parent="1">
          <mxGeometry x="398" y="210" width="60" height="20" as="geometry"/>
        </mxCell>
        <mxCell id="t7qmLVAt3Mfx72oACU28-39" value="1" style="text;html=1;resizable=0;points=[];autosize=1;align=left;verticalAlign=top;spacingTop=-4;" vertex="1" parent="1">
          <mxGeometry x="510" y="94" width="20" height="20" as="geometry"/>
        </mxCell>
        <mxCell id="t7qmLVAt3Mfx72oACU28-40" value="1...*" style="text;html=1;resizable=0;points=[];autosize=1;align=left;verticalAlign=top;spacingTop=-4;" vertex="1" parent="1">
          <mxGeometry x="327" y="292" width="40" height="20" as="geometry"/>
        </mxCell>
        <mxCell id="t7qmLVAt3Mfx72oACU28-41" value="1" style="text;html=1;resizable=0;points=[];autosize=1;align=left;verticalAlign=top;spacingTop=-4;" vertex="1" parent="1">
          <mxGeometry x="513" y="36" width="20" height="20" as="geometry"/>
        </mxCell>
        <mxCell id="t7qmLVAt3Mfx72oACU28-42" value="1...*" style="text;html=1;resizable=0;points=[];autosize=1;align=left;verticalAlign=top;spacingTop=-4;" vertex="1" parent="1">
          <mxGeometry x="386" y="48" width="40" height="20" as="geometry"/>
        </mxCell>
        <mxCell id="t7qmLVAt3Mfx72oACU28-43" value="vote count" style="text;html=1;resizable=0;points=[];autosize=1;align=left;verticalAlign=top;spacingTop=-4;" vertex="1" parent="1">
          <mxGeometry x="406" y="342" width="70" height="20" as="geometry"/>
        </mxCell>
        <mxCell id="t7qmLVAt3Mfx72oACU28-44" value="1...*" style="text;html=1;resizable=0;points=[];autosize=1;align=left;verticalAlign=top;spacingTop=-4;" vertex="1" parent="1">
          <mxGeometry x="342" y="364" width="40" height="20" as="geometry"/>
        </mxCell>
        <mxCell id="t7qmLVAt3Mfx72oACU28-45" value="1" style="text;html=1;resizable=0;points=[];autosize=1;align=left;verticalAlign=top;spacingTop=-4;" vertex="1" parent="1">
          <mxGeometry x="448" y="316" width="20" height="20" as="geometry"/>
        </mxCell>
        <mxCell id="t7qmLVAt3Mfx72oACU28-46" value="" style="endArrow=none;html=1;exitX=1.022;exitY=0;exitDx=0;exitDy=0;exitPerimeter=0;" edge="1" parent="1" source="t7qmLVAt3Mfx72oACU28-50">
          <mxGeometry relative="1" as="geometry">
            <mxPoint x="160" y="38" as="sourcePoint"/>
            <mxPoint x="250" y="39" as="targetPoint"/>
          </mxGeometry>
        </mxCell>
        <mxCell id="t7qmLVAt3Mfx72oACU28-47" value="1" style="resizable=0;html=1;align=left;verticalAlign=bottom;labelBackgroundColor=#ffffff;fontSize=10;" connectable="0" vertex="1" parent="t7qmLVAt3Mfx72oACU28-46">
          <mxGeometry x="-1" relative="1" as="geometry"/>
        </mxCell>
        <mxCell id="t7qmLVAt3Mfx72oACU28-48" value="1" style="resizable=0;html=1;align=right;verticalAlign=bottom;labelBackgroundColor=#ffffff;fontSize=10;" connectable="0" vertex="1" parent="t7qmLVAt3Mfx72oACU28-46">
          <mxGeometry x="1" relative="1" as="geometry"/>
        </mxCell>
        <mxCell id="t7qmLVAt3Mfx72oACU28-49" value="User" style="swimlane;fontStyle=1;childLayout=stackLayout;horizontal=1;startSize=26;fillColor=none;horizontalStack=0;resizeParent=1;resizeParentMax=0;resizeLast=0;collapsible=1;marginBottom=0;" vertex="1" parent="1">
          <mxGeometry x="20" y="13" width="110" height="120" as="geometry"/>
        </mxCell>
        <mxCell id="t7qmLVAt3Mfx72oACU28-50" value="+ castVote()&#xa;" style="text;strokeColor=none;fillColor=none;align=left;verticalAlign=top;spacingLeft=4;spacingRight=4;overflow=hidden;rotatable=0;points=[[0,0.5],[1,0.5]];portConstraint=eastwest;" vertex="1" parent="t7qmLVAt3Mfx72oACU28-49">
          <mxGeometry y="26" width="110" height="94" as="geometry"/>
        </mxCell>
        <mxCell id="t7qmLVAt3Mfx72oACU28-53" value="Text" style="text;html=1;resizable=0;points=[];autosize=1;align=left;verticalAlign=top;spacingTop=-4;" vertex="1" parent="1">
          <mxGeometry x="455" y="328" width="40" height="20" as="geometry"/>
        </mxCell>
      </root>
    </mxGraphModel>
  </diagram>
</mxfile>
